/* XPM */
static char *_543877708817[] = {
/* columns rows colors chars-per-pixel */
"32 32 186 2 ",
"   c #EF1B66",
".  c #C73B76",
"X  c #CE3179",
"o  c #DE3E78",
"O  c #EC2765",
"+  c #FF2570",
"@  c #FF3179",
"#  c #7CB658",
"$  c #6F8A7B",
"%  c #6FB267",
"&  c #7CBE66",
"*  c #63B077",
"=  c #71BC74",
"-  c #72BC75",
";  c #77BF7A",
":  c #7FCB76",
">  c #94BA36",
",  c #96BC3B",
"<  c #89B748",
"1  c #9DBF45",
"2  c #8FC14B",
"3  c #93C44F",
"4  c #86C15A",
"5  c #8AC35B",
"6  c #9BC85E",
"7  c #A3CF49",
"8  c #ADD841",
"9  c #B1DB48",
"0  c #87C765",
"q  c #8EC466",
"w  c #80C06C",
"e  c #85CD6F",
"r  c #89C577",
"t  c #9DCC7C",
"y  c #B0CA68",
"u  c #584F99",
"i  c #46509C",
"p  c #5257A1",
"a  c #5B5CA0",
"s  c #4A66AB",
"d  c #5E6FB3",
"f  c #4B76B7",
"g  c #4F74B6",
"h  c #5571B4",
"j  c #6174BA",
"k  c #617BB9",
"l  c #787AEC",
"z  c #FF1C84",
"x  c #D83A8A",
"c  c #ED2588",
"v  c #F72686",
"b  c #FF2786",
"n  c #EE318B",
"m  c #BD428D",
"M  c #B0568F",
"N  c #8B7684",
"B  c #AA6B8E",
"V  c #E3418D",
"C  c #E74490",
"Z  c #BE15DE",
"A  c #B81EDF",
"S  c #B91EDF",
"D  c #AE2EE0",
"F  c #B424E0",
"G  c #B524E0",
"H  c #B129E0",
"J  c #B228E0",
"K  c #AA33E1",
"L  c #AD30E0",
"P  c #A935E1",
"I  c #AA34E1",
"U  c #AA35E1",
"Y  c #A53BE1",
"T  c #A63BE1",
"R  c #A43EE1",
"E  c #C707DD",
"W  c #C903DD",
"Q  c #CA03DD",
"!  c #C608DE",
"~  c #C30DDE",
"^  c #C40CDE",
"/  c #C110DE",
"(  c #9E47E2",
")  c #9D48E2",
"_  c #9C4AE2",
"`  c #994FE3",
"'  c #9751E3",
"]  c #9457E3",
"[  c #9950E3",
"{  c #9358E3",
"}  c #A142E2",
"|  c #A242E2",
" . c #9060E3",
".. c #58AD84",
"X. c #5AB98B",
"o. c #48BE9A",
"O. c #54B197",
"+. c #65B980",
"@. c #66BC82",
"#. c #69B980",
"$. c #7889BF",
"%. c #33CD94",
"&. c #3DC49A",
"*. c #48C98D",
"=. c #51C38D",
"-. c #58D088",
";. c #43CF91",
":. c #7FC482",
">. c #39BDEF",
",. c #468DC9",
"<. c #5F85C1",
"1. c #5A8DC7",
"2. c #4D95C9",
"3. c #4E92CE",
"4. c #5694CC",
"5. c #5B92CA",
"6. c #5B98CE",
"7. c #5C9FCE",
"8. c #569BD1",
"9. c #569ED3",
"0. c #5C9FD3",
"q. c #648DC5",
"w. c #688DC1",
"e. c #6D8EC5",
"r. c #708BC3",
"t. c #6291C8",
"y. c #6497CC",
"u. c #6E90CF",
"i. c #7E92C5",
"p. c #7D94C7",
"a. c #7094C8",
"s. c #40A6DD",
"d. c #56A1D5",
"f. c #54A5D9",
"g. c #56A7D9",
"h. c #55A9DB",
"j. c #54ACDD",
"k. c #6AA5D6",
"l. c #7784E7",
"z. c #728BE7",
"x. c #7689E4",
"c. c #728CE7",
"v. c #718EE7",
"b. c #6E92E7",
"n. c #6C95E8",
"m. c #6C96E8",
"M. c #679CE8",
"N. c #669EE8",
"B. c #699AE8",
"V. c #5FA9E9",
"C. c #5DADE9",
"Z. c #49BEEA",
"A. c #53B2E1",
"S. c #54B5E3",
"D. c #57B6EA",
"F. c #5BB0EA",
"G. c #59B4EA",
"H. c #55B9EB",
"J. c #51BFEB",
"K. c #52BFEB",
"L. c #63A3E9",
"P. c #64A2E9",
"I. c #61A7E9",
"U. c #3FDBED",
"Y. c #3EDDED",
"T. c #3EC7F4",
"R. c #4DC5EB",
"E. c #4DC6EB",
"W. c #47CEEC",
"Q. c #49CBEC",
"!. c #45D1EC",
"~. c #44D4EC",
"^. c #41D8EC",
"/. c #41D8ED",
"(. c #40DBED",
"). c #958B8D",
"_. c #8F9CB9",
"`. c #93CA84",
"'. c #A8D38D",
"]. c #B2D585",
"[. c #C0DA86",
"{. c #C6E0A7",
"}. c #9F98C4",
"|. c #929DCB",
" X c #96A0CC",
".X c None",
/* pixels */
".X.X.X.X.X.X.X.X.X.X.X.X.X.X.X.X.X.X.X.X.X.X.X.X.X.X.X.X.X.X.X.X",
".X.X.X.X.X.X.X.X.X.X.X.X.X.X.X.X.X.X.X.X.X.X.X.X.X.X.X.X.X.X.X.X",
".X.X.X.X.X.X.X.X.X.X.X.Xz.l..X.X.X.X.X.X.X.X.X.X.X.X.X.X.X.X.X.X",
".X.X.X.X.X.X.X.X.X.X.Xb.c..X.X.X.X.X.X.X.X.X.X.X.X.X.X.X.X.X.X.X",
".X.X.X.X.X.X.X.X.X.XB.m..X.X.X.X.X.X.X.X.X.X.X.X.X.X.X.X.X.X.X.X",
".X.X.X.X.X.X.X.X.XL.N..X.X.X.X.X.X.X .] ` ) | T I D .X.X.X.X.X.X",
".X.X.X.X.X.X.X.XI.I..X.X.X.X.X.X.X.X.X.X.X.X.XI .XH G A .X.X.X.X",
".X.X.X.X.X.X.X.XC..X.X.X.X.X.X.X_..X.X.X.X.X.X.X.X.X.X.X.X.X.X.X",
".X.X.X.X.X.X.XG..X.X.X.X.X.X.Xa }..X.X.X.X.X.X.X.X.X.X.X.X.X.X.X",
".X.X.X.X.X.X.X.X.X.X.X.X.X.Xj u  X|..X.X.X.X.X.X.X.X.X.X.X.X.X.X",
".X.X.X.X.X.XK..X.X.X.X.X.X.Xd p $.i.p..X.X.X.X.X.X.X.X.X.X.X.X.X",
".X.X.X.X.X.X.X.X.X.X.X.X.X.Xu.i k r.e.a..X.X.X.X.X.X.X.X.X.X.X.X",
".XY..X.X.X.X.X.X.X.X.X.X.X.X.Xh s <.q.5.y..X.X.X.X.X.XZ .X.X.X.X",
".XY..X.X.X.X.X.X.X.X[..X.X.X.X.Xh f 1.5.6.0..X.X.X.X.X.X/ .X.X.X",
".X(.U..X.X.X.X.X.X.Xy {..X.X.X.X.X3.,.4.8.d.h..X.X.X.X.X^ ~ .X.X",
".X.X(..X.X.X.X.X.X8 1 ].'..X.X.X.X.X2.s.9.f.j..X.X.X.X.X.X! .X.X",
".X.X!.(..X.X.X.X.X9 > 6 t `..X.X.X.Xo w.>.h.A..X.X.X.X.X.XQ ! .X",
".X.X.X!..X.X.X.X.X.X, 2 q r :..X.Xz @ O 7.T.S..X.X.X.X.X.X.XQ .X",
".X.X.X.XW..X.X.X.X.X7 < 4 w : -.).b C + . Z..X.X.X.X.X.X.X.X.X.X",
".X.X.X.XQ..X.X.X.X.X.X3 # & = @.;.B v V   k..X.X.X.X.X.X.X.X.X.X",
".X.X.X.X.XE..X.X.X.X.X.X5 % = #.*.O.x n X .X.X.X.X.X.X.X.X.X.X.X",
".X.X.X.X.X.X.X.X.X.X.X.X.X0 * +.X.&.M c .X.X.X.X.X.XA .X.X.X.X.X",
".X.X.X.X.X.X.X.X.X.X.X.X.X.Xe ..=.o.m .X.X.X.X.X.XG .X.X.X.X.X.X",
".X.X.X.X.X.X.X.X.X.X.X.X.X.X.X: %.N .X.X.X.X.X.X.XH .X.X.X.X.X.X",
".X.X.X.X.X.X.X.X.X.X.X.X.X.X.X.X$ .X.X.X.X.X.X.XL .X.X.X.X.X.X.X",
".X.X.X.XE.J.H..X.X.X.X.X.X.X.X.X.X.X.X.X.X.X.XI K .X.X.X.X.X.X.X",
".X.X.X.X.X.XD.F.I.L.N.m.c.x.l .X.X.X.X.X.X.X| T .X.X.X.X.X.X.X.X",
".X.X.X.X.X.X.X.X.X.X.X.X.X.X.X.X.X.X.X.X.X( } .X.X.X.X.X.X.X.X.X",
".X.X.X.X.X.X.X.X.X.X.X.X.X.X.X.X.X.X.X.X[ ) .X.X.X.X.X.X.X.X.X.X",
".X.X.X.X.X.X.X.X.X.X.X.X.X.X.X.X.X.X.X{ [ .X.X.X.X.X.X.X.X.X.X.X",
".X.X.X.X.X.X.X.X.X.X.X.X.X.X.X.X.X.X.X.X.X.X.X.X.X.X.X.X.X.X.X.X",
".X.X.X.X.X.X.X.X.X.X.X.X.X.X.X.X.X.X.X.X.X.X.X.X.X.X.X.X.X.X.X.X"
};
