/* XPM */
static char *_543877647080[] = {
/* columns rows colors chars-per-pixel */
"16 16 47 1 ",
"  c #FF0765",
". c #ED227B",
"X c #6DB565",
"o c #71ED5E",
"O c #C5E537",
"+ c #8EB84D",
"@ c #9BCA42",
"# c #8FCE52",
"$ c #86CF77",
"% c #ADC978",
"& c #505AAF",
"* c #4274B7",
"= c #AE5E9C",
"- c #C55B89",
"; c #AF2EDF",
": c #B02AE0",
"> c #A43CE1",
", c #A43DE1",
"< c #C706DE",
"1 c #C903DD",
"2 c #C110DE",
"3 c #9F46E1",
"4 c #9C4BE2",
"5 c #6D8582",
"6 c #44BF85",
"7 c #56B298",
"8 c #7788B7",
"9 c #7183BB",
"0 c #5CC884",
"q c #3D98D0",
"w c #5C91CA",
"e c #54A5CD",
"r c #51A6DD",
"t c #6AA0C5",
"y c #6DA3C5",
"u c #6D97E6",
"i c #6B98E8",
"p c #42B7E8",
"a c #5CB1E8",
"s c #51B2F1",
"d c #64A1E9",
"f c #64A2E9",
"g c #3FDBED",
"h c #3FD4F1",
"j c #48CFEB",
"k c #9EA8C0",
"l c None",
/* pixels */
"llllllllllllllll",
"llllllllllllllll",
"lllldillll4,llll",
"lllallllllll:lll",
"lllslll8klllllll",
"lllllll&9yllllll",
"llllllll*welll2l",
"glllO%lllqrlll<l",
"lhlll+$ll=pllll1",
"ljlll@X0- tlllll",
"llllll#07.llllll",
"lllllllo5lllllll",
"llllllllllll;lll",
"lllldullll3,llll",
"llllllllllllllll",
"llllllllllllllll"
};
