/* XPM */
static char *_543877699595[] = {
/* columns rows colors chars-per-pixel */
"64 64 201 2 ",
"   c #EE003C",
".  c #B43974",
"X  c #FF1757",
"o  c #F5084B",
"O  c #EC1966",
"+  c #D22F6A",
"@  c #E1337A",
"#  c #D1427A",
"$  c #7FBA5D",
"%  c #7ABE6A",
"&  c #79BB66",
"*  c #6CBB7C",
"=  c #6AB674",
"-  c #73BD73",
";  c #77BF79",
":  c #67B172",
">  c #7DC17B",
",  c #7EC06E",
"<  c #99BC37",
"1  c #97BA2F",
"2  c #9CC23C",
"3  c #A5C93D",
"4  c #8BB94C",
"5  c #86BC56",
"6  c #90BD48",
"7  c #80BF63",
"8  c #9BC545",
"9  c #95C44B",
"0  c #8CC255",
"q  c #86C15D",
"w  c #95C555",
"e  c #8EC24F",
"r  c #ACD945",
"t  c #ACD452",
"y  c #B6EA58",
"u  c #B2E453",
"i  c #85C467",
"p  c #99C866",
"a  c #87C677",
"s  c #98CA75",
"d  c #93D76D",
"f  c #A3CE7A",
"g  c #AAD178",
"h  c #B3D472",
"j  c #3D2D84",
"k  c #4A3A8C",
"l  c #4D4896",
"z  c #4F519C",
"x  c #64549B",
"c  c #555AA4",
"v  c #4865AA",
"b  c #5464AB",
"n  c #5B66AB",
"m  c #546AAE",
"M  c #586EB2",
"N  c #4879B9",
"B  c #5878B8",
"V  c #6672B4",
"C  c #7C7BE7",
"Z  c #DE1D85",
"A  c #E91E84",
"S  c #CA3589",
"D  c #D63988",
"F  c #DB3C89",
"G  c #D63888",
"H  c #DE2384",
"J  c #EC2385",
"K  c #F82786",
"L  c #E13D8A",
"P  c #E23887",
"I  c #F13587",
"U  c #AF4D87",
"Y  c #8A7A94",
"T  c #AC6490",
"R  c #9469A1",
"E  c #DC4989",
"W  c #E4438B",
"Q  c #EB448A",
"!  c #E74187",
"~  c #E74992",
"^  c #F94188",
"/  c #BE16DF",
"(  c #B91CDF",
")  c #B622DF",
"_  c #AF2DE0",
"`  c #B425E0",
"'  c #B12AE0",
"]  c #AB33E1",
"[  c #A53CE1",
"{  c #A838E1",
"}  c #CA02DD",
"|  c #C40BDE",
" . c #C707DD",
".. c #C111DE",
"X. c #9E46E2",
"o. c #9B4BE2",
"O. c #9654E3",
"+. c #925AE4",
"@. c #9851E3",
"#. c #8F5FE4",
"$. c #A142E2",
"%. c #8C64E4",
"&. c #886AE5",
"*. c #836FF0",
"=. c #798A95",
"-. c #58AE86",
";. c #5FB887",
":. c #5BB68D",
">. c #59BB8F",
",. c #56B692",
"<. c #50BB94",
"1. c #50B594",
"2. c #64B983",
"3. c #62BA8A",
"4. c #6ABA85",
"5. c #71BD81",
"6. c #73A891",
"7. c #5582BF",
"8. c #5E80BD",
"9. c #7D8ABF",
"0. c #35CC9D",
"q. c #3AD496",
"w. c #4CC788",
"e. c #43C896",
"r. c #53CB8D",
"t. c #66C78A",
"y. c #79C188",
"u. c #3DB9EB",
"i. c #5B8CC5",
"p. c #5589C4",
"a. c #5594CC",
"s. c #5C94CB",
"d. c #5B99CF",
"f. c #499DD7",
"g. c #559CD2",
"h. c #5A9CD1",
"j. c #4A95CD",
"k. c #638DC6",
"l. c #6A8BC3",
"z. c #6C87C6",
"x. c #738CC2",
"c. c #7E8FC3",
"v. c #6494CB",
"b. c #6896CB",
"n. c #7492C6",
"m. c #7A93C6",
"M. c #689ED4",
"N. c #779CD4",
"B. c #55A1D5",
"V. c #54A6D8",
"C. c #54ABDC",
"Z. c #58A1D5",
"A. c #42A5DC",
"S. c #6DA2D8",
"D. c #7685E7",
"F. c #728BE7",
"G. c #7A81E5",
"H. c #6D94E8",
"J. c #679DE8",
"K. c #6999E8",
"L. c #6F91E7",
"P. c #7090E7",
"I. c #4DADE1",
"U. c #5DACE9",
"Y. c #4BB9E8",
"T. c #52B3E2",
"R. c #59B3EA",
"E. c #54BBEA",
"W. c #55B8E9",
"Q. c #63A3E9",
"!. c #60A8E9",
"~. c #74AEE1",
"^. c #3EDDED",
"/. c #3BD3FD",
"(. c #4EC5EB",
"). c #4ACBEC",
"_. c #47CFEC",
"`. c #51C0EB",
"'. c #44D4EC",
"]. c #40DAED",
"[. c #43C9F7",
"{. c #41D4FD",
"}. c #7DCCFC",
"|. c #9497BF",
" X c #888E91",
".X c #86C586",
"XX c #99CC86",
"oX c #ABD388",
"OX c #BBD987",
"+X c #BADA96",
"@X c #C3D997",
"#X c #C1DB8B",
"$X c #D1E6B2",
"%X c #8394C6",
"&X c #8996C6",
"*X c #949CC9",
"=X c #96A0CB",
"-X c #A6ABD1",
";X c #C9C7DF",
":X c #C5C8E1",
">X c None",
/* pixels */
">X>X>X>X>X>X>X>X>X>X>X>X>X>X>X>X>X>X>X>X>X>X>X>X>X>X>X>X>X>X>X>X>X>X>X>X>X>X>X>X>X>X>X>X>X>X>X>X>X>X>X>X>X>X>X>X>X>X>X>X>X>X>X>X",
">X>X>X>X>X>X>X>X>X>X>X>X>X>X>X>X>X>X>X>X>X>X>X>X>X>X>X>X>X>X>X>X>X>X>X>X>X>X>X>X>X>X>X>X>X>X>X>X>X>X>X>X>X>X>X>X>X>X>X>X>X>X>X>X",
">X>X>X>X>X>X>X>X>X>X>X>X>X>X>X>X>X>X>X>X>X>X>X>X>X>X>X>X>X>X>X>X>X>X>X>X>X>X>X>X>X>X>X>X>X>X>X>X>X>X>X>X>X>X>X>X>X>X>X>X>X>X>X>X",
">X>X>X>X>X>X>X>X>X>X>X>X>X>X>X>X>X>X>X>X>X>X>X>X>X>X>XG.C >X>X>X>X>X>X>X>X>X>X>X>X>X>X>X>X>X>X>X>X>X>X>X>X>X>X>X>X>X>X>X>X>X>X>X",
">X>X>X>X>X>X>X>X>X>X>X>X>X>X>X>X>X>X>X>X>X>X>X>X>XD.D.>X>X>X>X>X>X>X>X>X>X>X>X>X>X>X>X>X>X>X>X>X>X>X>X>X>X>X>X>X>X>X>X>X>X>X>X>X",
">X>X>X>X>X>X>X>X>X>X>X>X>X>X>X>X>X>X>X>X>X>X>X>XF.D.>X>X>X>X>X>X>X>X>X>X>X>X>X>X>X>X>X>X>X>X>X>X>X>X>X>X>X>X>X>X>X>X>X>X>X>X>X>X",
">X>X>X>X>X>X>X>X>X>X>X>X>X>X>X>X>X>X>X>X>X>XL.P.F.>X>X>X>X>X>X>X>X>X>X>X>X>X>X>X>X>X>X>X>X>X>X>X>X>X>X>X>X>X>X>X>X>X>X>X>X>X>X>X",
">X>X>X>X>X>X>X>X>X>X>X>X>X>X>X>X>X>X>X>X>XH.L.L.>X>X>X>X>X>X>X>X>X>X>X>X>X>X>X>X>X>X>X>X>X>X>X>X>X>X>X>X>X>X>X>X>X>X>X>X>X>X>X>X",
">X>X>X>X>X>X>X>X>X>X>X>X>X>X>X>X>X>X>X>XK.H.>X>X>X>X>X>X>X>X>X>X>X>X>X>X>X>X>X>X>X>X>X>X>X>X>X>X>X>X>X>X>X>X>X>X>X>X>X>X>X>X>X>X",
">X>X>X>X>X>X>X>X>X>X>X>X>X>X>X>X>X>X>XJ.K.K.>X>X>X>X>X>X>X>X>X>X>X>X>X>X>X>X>X>X>X>X>X>X>X>X>X>X>X>X>X>X>X>X>X>X>X>X>X>X>X>X>X>X",
">X>X>X>X>X>X>X>X>X>X>X>X>X>X>X>X>X>X>XJ.J.>X>X>X>X>X>X>X>X>X>X>X>X>X>X>X>X>XO.>X>X>X>X>X>X>X>X>X>X>X>X>X>X>X>X>X>X>X>X>X>X>X>X>X",
">X>X>X>X>X>X>X>X>X>X>X>X>X>X>X>X>X>XQ.Q.>X>X>X>X>X>X>X>X>X>X>X>X>X>X%.%.+.+.O.@.o.o.o.$.$.[ [ { ] _ ' ' >X>X>X>X>X>X>X>X>X>X>X>X",
">X>X>X>X>X>X>X>X>X>X>X>X>X>X>X>X>XQ.Q.>X>X>X>X>X>X>X>X>X>X>X>X>X>X>X>X>X>X>X>X>Xo.o.$.$.[ { ] ] ] ' ' ' ` ) ( >X>X>X>X>X>X>X>X>X",
">X>X>X>X>X>X>X>X>X>X>X>X>X>X>X>XU.!.>X>X>X>X>X>X>X>X>X>X>X>X>X>X>X>X>X>X>X>X>X>X>X>X>X>X>X>X>X>X>X>X>X>X) ` ( ( ..>X>X>X>X>X>X>X",
">X>X>X>X>X>X>X>X>X>X>X>X>X>X>X>XU.U.>X>X>X>X>X>X>X>X>X>X>X>X>XM *X>X>X>X>X>X>X>X>X>X>X>X>X>X>X>X>X>X>X>X>X>X>X>X/ ....>X>X>X>X>X",
">X>X>X>X>X>X>X>X>X>X>X>X>X>X>XU.U.>X>X>X>X>X>X>X>X>X>X>X>X>XM x ;X>X>X>X>X>X>X>X>X>X>X>X>X>X>X>X>X>X>X>X>X>X>X>X>X>X>X| >X>X>X>X",
">X>X>X>X>X>X>X>X>X>X>X>X>X>X>XR.>X>X>X>X>X>X>X>X>X>X>X>X>Xz.k |.:X>X>X>X>X>X>X>X>X>X>X>X>X>X>X>X>X>X>X>X>X>X>X>X>X>X>X>X>X .>X>X",
">X>X>X>X>X>X>X>X>X>X>X>X>X>XR.R.>X>X>X>X>X>X>X>X>X>X>X>X>Xk x *X-X-X>X>X>X>X>X>X>X>X>X>X>X>X>X>X>X>X>X>X>X>X>X>X>X>X>X>X>X>X>X>X",
">X>X>X>X>X>X>X>X>X>X>X>X>XW.W.>X>X>X>X>X>X>X>X>X>X>X>X>Xn l n *X=X=X*X>X>X>X>X>X>X>X>X>X>X>X>X>X>X>X>X>X>X>X>X>X>X>X>X>X>X>X>X>X",
">X>X>X>X>X>X>X>X>X>X>X>X>XE.>X>X>X>X>X>X>X>X>X>X>X>X>X>Xz c n &X&X&X*X&X>X>X>X>X>X>X>X>X>X>X>X>X>X>X>X>X>X>X>X>X>X>X>X>X>X>X>X>X",
">X^.>X>X>X>X>X>X>X>X>X>X`.>X>X>X>X>X>X>X>X>X>X>X>X>X>XN.l b M c.%X%Xc.%Xm.>X>X>X>X>X>X>X>X>X>X>X>X>X>X>X>X>X>X>X>X>X>X>X>X>X>X>X",
">X^.>X>X>X>X>X>X>X>X>X>X`.>X>X>X>X>X>X>X>X>X>X>X>X>X>X>Xz n m V c.x.x.n.m.m.>X>X>X>X>X>X>X>X>X>X>X>X>X) >X>X>X>X>X>X>X>X>X>X>X>X",
">X^.>X>X>X>X>X>X>X>X>X>X>X>X>X>X>X>X>X>X>X>X>X>X>X>X>X>Xb b M M 9.x.x.n.n.n.m.>X>X>X>X>X>X>X>X>X>X>X>X>X( >X>X>X>X>X>X>X>X>X>X>X",
">X^.^.>X>X>X>X>X>X>X>X>X>X>X>X>X>X>X>X>X>X>X>X>X>X>X>X>Xz.z M M B l.l.l.l.b.b.b.b.>X>X>X>X>X>X>X>X>X>X>X>X..>X>X>X>X>X>X>X>X>X>X",
">X^.^.>X>X>X>X>X>X>X>X>X>X>X>X>X>X>X>X>X>X>X>X>X>X>X>X>X>Xm m B N B z.l.k.k.v.v.v.M.>X>X>X>X>X>X>X>X>X>X>X/ >X>X>X>X>X>X>X>X>X>X",
">X^.^.>X>X>X>X>X>X>X>X>X>X>X>X>X>X>X>X>X#X>X>X>X>X>X>X>X>X>Xv M B B p.l.k.i.k.v.v.b.h.>X>X>X>X>X>X>X>X>X>X>X..>X>X>X>X>X>X>X>X>X",
">X^.].>X>X>X>X>X>X>X>X>X>X>X>X>X>X>X>Xr @X>X>X>X>X>X>X>X>X>XS.v p.B p.p.k.i.s.s.d.h.h.>X>X>X>X>X>X>X>X>X>X>X....>X>X>X>X>X>X>X>X",
">X>X].^.>X>X>X>X>X>X>X>X>X>X>X>X>X>X>X3 @X$X>X>X>X>X>X>X>X>X>XM.v p.p.p.i.a.s.d.h.h.h.Z.>X>X>X>X>X>X>X>X>X>X>X....>X>X>X>X>X>X>X",
">X>X].].>X>X>X>X>X>X>X>X>X>X>X>X>X>Xu 2 OX$X@X>X>X>X>X>X>X>X>X>XS.N p.p.a.a.a.a.g.h.B.V.>X>X>X>X>X>X>X>X>X>X>X>X| >X>X>X>X>X>X>X",
">X>X>X].].>X>X>X>X>X>X>X>X>X>X>X>X>X3 1 h #X+X+X>X>X>X>X>X>X>X>X>X~.N p.a.a.a.g.g.B.B.V.C.>X>X>X>X>X>X>X>X>X>X>X| | >X>X>X>X>X>X",
">X>X>X].].>X>X>X>X>X>X>X>X>X>X>X>X>X3 2 t OXg oXoX>X>X>X>X>X>X>X>X>X}.f.j.a.g.g.B.B.Z.C.C.>X>X>X>X>X>X>X>X>X>X>X>X .| >X>X>X>X>X",
">X>X>X>X].].>X>X>X>X>X>X>X>X>X>X>X>X3 3 8 h g XXoXXX>X>X>X>X>X>X>X>X>X>Xf.A.g.B.V.V.V.C.T.>X>X>X>X>X>X>X>X>X>X>X>X>X .| >X>X>X>X",
">X>X>X>X'.'.>X>X>X>X>X>X>X>X>X>X>X>X3 2 2 w g f s XXXX>X>X>X>X>X>X>X>X>X# I.u.Z.C.C.C.C.T.>X>X>X>X>X>X>X>X>X>X>X>X>X} | >X>X>X>X",
">X>X>X>X>X'.'.>X>X>X>X>X>X>X>X>X>X>Xr 3 8 9 p s s s .X.X>X>X>X>X>X>X>X^ X + I.u.V.C.I.T.T.>X>X>X>X>X>X>X>X>X>X>X>X>X>X .| >X>X>X",
">X>X>X>X>X>X'.].>X>X>X>X>X>X>X>X>X>Xr < 8 9 e p s a a a .Xy.>X>X>X>XQ Q ~ X + C.u.C.T.T.T.>X>X>X>X>X>X>X>X>X>X>X>X>X>X}  .>X>X>X",
">X>X>X>X>X>X_._.>X>X>X>X>X>X>X>X>X>X>X3 8 9 e 0 p i a > y.y.t.>X>XI Q ! Q ~ X + [.Y.T.T.E.>X>X>X>X>X>X>X>X>X>X>X>X>X>X>X} } >X>X",
">X>X>X>X>X>X>X_.'.>X>X>X>X>X>X>X>X>X>Xu 6 8 w 5 5 i a ; > 2.t.t.W K W ! ! W W o U /.Y.E.>X>X>X>X>X>X>X>X>X>X>X>X>X>X>X>X} } >X>X",
">X>X>X>X>X>X>X>X_.>X>X>X>X>X>X>X>X>X>X>X8 6 w 0 7 & a % > * 2.r.6.I I ! ! ! Q @   x./.E.>X>X>X>X>X>X>X>X>X>X>X>X>X>X>X>X>X} >X>X",
">X>X>X>X>X>X>X>X).).>X>X>X>X>X>X>X>X>X>Xy 6 6 0 q 7 & - > * 2.3.q. XK P F L W E o U {.>X>X>X>X>X>X>X>X>X>X>X>X>X>X>X>X>X>X} } >X",
">X>X>X>X>X>X>X>X>X).).>X>X>X>X>X>X>X>X>X>Xu 5 5 q 7 % - * > 2.;.r.q.T K F F F W O . >X>X>X>X>X>X>X>X>X>X>X>X>X>X>X>X>X>X>X} } >X",
">X>X>X>X>X>X>X>X>X>X(.>X>X>X>X>X>X>X>X>X>X>Xu 5 $ $ , , = > ;.;.3.e.,.J P F F L O R >X>X>X>X>X>X>X>X>X>X>X>X>X>X>X>X>X>X>X} } >X",
">X>X>X>X>X>X>X>X>X>X>X(.>X>X>X>X>X>X>X>X>X>X>X>X$ & , , * = * ;.:.,.0.T J D G L + >X>X>X>X>X>X>X>X>X>X>X/ >X>X>X>X>X>X>X>X>X} >X",
">X>X>X>X>X>X>X>X>X>X>X>X>X>X>X>X>X>X>X>X>X>X>X>X>Xi : , = * * ;.,.,.0.Y J D D L >X>X>X>X>X>X>X>X>X>X>X>X>X>X>X>X>X>X>X>X>X>X} >X",
">X>X>X>X>X>X>X>X>X>X>X>X>X>X>X>X>X>X>X>X>X>X>X>X>X>X, : > = w.-.:.1.0.=.A D D >X>X>X>X>X>X>X>X>X>X>X>X) >X>X>X>X>X>X>X>X>X>X} >X",
">X>X>X>X>X>X>X>X>X>X>X>X>X>X>X>X>X>X>X>X>X>X>X>X>X>X>Xd : * 2.;.:.,.0.Y A D >X>X>X>X>X>X>X>X>X>X>X>X` >X>X>X>X>X>X>X>X>X>X>X>X>X",
">X>X>X>X>X>X>X>X>X>X>X>X>X>X>X>X>X>X>X>X>X>X>X>X>X>X>X>Xi -.* ;.:.<.0.U H >X>X>X>X>X>X>X>X>X>X>X>X` ` >X>X>X>X>X>X>X>X>X>X>X>X>X",
">X>X>X>X>X>X>X>X>X>X>X>X>X>X>X>X>X>X>X>X>X>X>X>X>X>X>X>X>X> -.;.:.q.=.Z >X>X>X>X>X>X>X>X>X>X>X>X>X' >X>X>X>X>X>X>X>X>X>X>X>X>X>X",
">X>X>X>X>X>X>X>X>X>X>X>X>X>X>X>X>X>X>X>X>X>X>X>X>X>X>X>X>X>X* ,.r.1.S >X>X>X>X>X>X>X>X>X>X>X>X>X' ' >X>X>X>X>X>X>X>X>X>X>X>X>X>X",
">X>X>X>X>X>X>X>X>X>X>X>X>X>X>X>X>X>X>X>X>X>X>X>X>X>X>X>X>X>Xf <.e.>X>X>X>X>X>X>X>X>X>X>X>X>X>X_ ' >X>X>X>X>X>X>X>X>X>X>X>X>X>X>X",
">X>X>X>X'._._.>X>X>X>X>X>X>X>X>X>X>X>X>X>X>X>X>X>X>X>X>X>X>X>Xw.>X>X>X>X>X>X>X>X>X>X>X>X>X>X>X_ ] >X>X>X>X>X>X>X>X>X>X>X>X>X>X>X",
">X>X>X>X>X>X).).(.`.>X>X>X>X>X>X>X>X>X>X>X>X>X>X>X>X>X>X>X>X>X>X>X>X>X>X>X>X>X>X>X>X>X>X>X>X] ] >X>X>X>X>X>X>X>X>X>X>X>X>X>X>X>X",
">X>X>X>X>X>X>X>X(.`.E.E.W.W.R.>X>X>XQ.>X>X>X>X>X>X>X>X>X>X>X>X>X>X>X>X>X>X>X>X>X>X>X>X>X>X[ [ >X>X>X>X>X>X>X>X>X>X>X>X>X>X>X>X>X",
">X>X>X>X>X>X>X>X>X>X>XW.R.R.R.!.!.!.Q.Q.Q.K.H.H.F.F.D.%XC C *.*.>X>X>X>X>X>X>X>X>X>X>X>X[ [ [ >X>X>X>X>X>X>X>X>X>X>X>X>X>X>X>X>X",
">X>X>X>X>X>X>X>X>X>X>X>X>XR.>X>X>XQ.Q.Q.H.>XH.P.>XD.D.>X>X>X>X>X>X>X>X>X>X>X>X>X>X>X>X>X$.$.>X>X>X>X>X>X>X>X>X>X>X>X>X>X>X>X>X>X",
">X>X>X>X>X>X>X>X>X>X>X>X>X>X>X>X>X>X>X>X>X>X>X>X>X>X>X>X>X>X>X>X>X>X>X>X>X>X>X>X>X>X>X$.$.>X>X>X>X>X>X>X>X>X>X>X>X>X>X>X>X>X>X>X",
">X>X>X>X>X>X>X>X>X>X>X>X>X>X>X>X>X>X>X>X>X>X>X>X>X>X>X>X>X>X>X>X>X>X>X>X>X>X>X>X>X>X$.$.>X>X>X>X>X>X>X>X>X>X>X>X>X>X>X>X>X>X>X>X",
">X>X>X>X>X>X>X>X>X>X>X>X>X>X>X>X>X>X>X>X>X>X>X>X>X>X>X>X>X>X>X>X>X>X>X>X>X>X>X>X>Xo.$.$.>X>X>X>X>X>X>X>X>X>X>X>X>X>X>X>X>X>X>X>X",
">X>X>X>X>X>X>X>X>X>X>X>X>X>X>X>X>X>X>X>X>X>X>X>X>X>X>X>X>X>X>X>X>X>X>X>X>X>X>X>X@.o.o.>X>X>X>X>X>X>X>X>X>X>X>X>X>X>X>X>X>X>X>X>X",
">X>X>X>X>X>X>X>X>X>X>X>X>X>X>X>X>X>X>X>X>X>X>X>X>X>X>X>X>X>X>X>X>X>X>X>X>X>X>XO.@.>X>X>X>X>X>X>X>X>X>X>X>X>X>X>X>X>X>X>X>X>X>X>X",
">X>X>X>X>X>X>X>X>X>X>X>X>X>X>X>X>X>X>X>X>X>X>X>X>X>X>X>X>X>X>X>X>X>X>X>X>X#.+.O.>X>X>X>X>X>X>X>X>X>X>X>X>X>X>X>X>X>X>X>X>X>X>X>X",
">X>X>X>X>X>X>X>X>X>X>X>X>X>X>X>X>X>X>X>X>X>X>X>X>X>X>X>X>X>X>X>X>X>X>X>X#.+.>X>X>X>X>X>X>X>X>X>X>X>X>X>X>X>X>X>X>X>X>X>X>X>X>X>X",
">X>X>X>X>X>X>X>X>X>X>X>X>X>X>X>X>X>X>X>X>X>X>X>X>X>X>X>X>X>X>X>X>X>X%.%.>X>X>X>X>X>X>X>X>X>X>X>X>X>X>X>X>X>X>X>X>X>X>X>X>X>X>X>X",
">X>X>X>X>X>X>X>X>X>X>X>X>X>X>X>X>X>X>X>X>X>X>X>X>X>X>X>X>X>X>X>X>X&.>X>X>X>X>X>X>X>X>X>X>X>X>X>X>X>X>X>X>X>X>X>X>X>X>X>X>X>X>X>X",
">X>X>X>X>X>X>X>X>X>X>X>X>X>X>X>X>X>X>X>X>X>X>X>X>X>X>X>X>X>X>X>X>X>X>X>X>X>X>X>X>X>X>X>X>X>X>X>X>X>X>X>X>X>X>X>X>X>X>X>X>X>X>X>X"
};
